{
  "asset": {
    "version": "2.0",
    "generator": "THREE.GLTFExporter r181"
  },
  "scenes": [
    {
      "name": "AuxScene",
      "nodes": [
        0
      ]
    }
  ],
  "scene": 0,
  "nodes": [
    {
      "children": [
        1
      ]
    },
    {
      "children": [
        2
      ]
    },
    {
      "children": [
        3
      ]
    },
    {
      "children": [
        4
      ]
    },
    {
      "rotation": [
        0,
        0.3826834323650898,
        0,
        0.9238795325112867
      ],
      "scale": [
        0.6282590940503864,
        -0.6282590940503864,
        0.6282590940503864
      ],
      "children": [
        5
      ]
    },
    {
      "children": [
        6
      ]
    },
    {
      "translation": [
        -43.36134582012892,
        -79.4723075130023,
        -25
      ],
      "mesh": 0
    }
  ],
  "bufferViews": [
    {
      "buffer": 0,
      "byteOffset": 0,
      "byteLength": 32112,
      "target": 34962,
      "byteStride": 12
    },
    {
      "buffer": 0,
      "byteOffset": 32112,
      "byteLength": 21408,
      "target": 34962,
      "byteStride": 8
    },
    {
      "buffer": 0,
      "byteOffset": 53520,
      "byteLength": 32112,
      "target": 34962,
      "byteStride": 12
    }
  ],
  "buffers": [
    {
      "byteLength": 85632,
      "uri": "data:application/octet-stream;base64,"
    }
  ],
  "accessors": [
    {
      "bufferView": 0,
      "componentType": 5126,
      "count": 2676,
      "max": [
        86.49468231201172,
        159.16372680664062,
        50
      ],
      "min": [
        0.0050195311196148396,
        0.0060494993813335896,
        0
      ],
      "type": "VEC3"
    },
    {
      "bufferView": 1,
      "componentType": 5126,
      "count": 2676,
      "max": [
        158.0122833251953,
        159.16372680664062
      ],
      "min": [
        0.0050195311196148396,
        -49
      ],
      "type": "VEC2"
    },
    {
      "bufferView": 2,
      "componentType": 5126,
      "count": 2676,
      "max": [
        0.9999897480010986,
        0.9975529909133911,
        1
      ],
      "min": [
        -0.9997423887252808,
        -0.999268651008606,
        -1
      ],
      "type": "VEC3"
    }
  ],
  "materials": [
    {
      "pbrMetallicRoughness": {
        "baseColorFactor": [
          0,
          0,
          0,
          1
        ],
        "metallicFactor": 1,
        "roughnessFactor": 0.4
      },
      "doubleSided": true,
      "extras": {
        "originalProperties": {
          "color": 0,
          "roughness": 0.4,
          "metalness": 1,
          "clearcoat": 0,
          "clearcoatRoughness": 0.01,
          "transmission": 0,
          "ior": 1.4,
          "opacity": 1,
          "sheen": 0,
          "sheenRoughness": 0
        },
        "isHole": false
      },
      "extensions": {
        "KHR_materials_ior": {
          "ior": 1.4
        }
      }
    }
  ],
  "meshes": [
    {
      "primitives": [
        {
          "mode": 4,
          "attributes": {
            "POSITION": 0,
            "TEXCOORD_0": 1,
            "NORMAL": 2
          },
          "material": 0
        }
      ]
    }
  ],
  "extensionsUsed": [
    "KHR_materials_ior"
  ]
}