# Blender 5.1.0
# www.blender.org
mtllib platformhudson.mtl
o Cylinder
v 8.542850 0.239899 -14.709924
v 8.542850 5.148857 -14.709924
v 10.066073 0.239899 -14.635092
v 10.066073 5.148857 -14.635092
v 11.574629 0.239899 -14.411320
v 11.574629 5.148857 -14.411320
v 13.053986 0.239899 -14.040757
v 13.053986 5.148857 -14.040757
v 14.489899 0.239899 -13.526980
v 14.489899 5.148857 -13.526980
v 15.868538 0.239899 -12.874932
v 15.868538 5.148857 -12.874932
v 17.176628 0.239899 -12.090895
v 17.176628 5.148857 -12.090895
v 18.401567 0.239899 -11.182417
v 18.401567 5.148857 -11.182417
v 19.531563 0.239899 -10.158248
v 19.531563 5.148857 -10.158248
v 20.555733 0.239899 -9.028253
v 20.555733 5.148857 -9.028253
v 21.464211 0.239899 -7.803313
v 21.464211 5.148857 -7.803313
v 22.248247 0.239899 -6.495223
v 22.248247 5.148857 -6.495223
v 22.900295 0.239899 -5.116584
v 22.900295 5.148857 -5.116584
v 23.414074 0.239899 -3.680671
v 23.414074 5.148857 -3.680671
v 23.784634 0.239899 -2.201314
v 23.784634 5.148857 -2.201314
v 24.008406 0.239899 -0.692759
v 24.008406 5.148857 -0.692759
v 24.083237 0.239899 0.830465
v 24.083237 5.148857 0.830465
v 24.008406 0.239899 2.353690
v 24.008406 5.148857 2.353690
v 23.784634 0.239899 3.862245
v 23.784634 5.148857 3.862245
v 23.414074 0.239899 5.341601
v 23.414074 5.148857 5.341601
v 22.900295 0.239899 6.777514
v 22.900295 5.148857 6.777514
v 22.248247 0.239899 8.156153
v 22.248247 5.148857 8.156153
v 21.464211 0.239899 9.464243
v 21.464211 5.148857 9.464243
v 20.555733 0.239899 10.689183
v 20.555733 5.148857 10.689183
v 19.531563 0.239899 11.819179
v 19.531563 5.148857 11.819179
v 18.401567 0.239899 12.843348
v 18.401567 5.148857 12.843348
v 17.176628 0.239899 13.751825
v 17.176628 5.148857 13.751825
v 15.868538 0.239899 14.535863
v 15.868538 5.148857 14.535863
v 14.489899 0.239899 15.187911
v 14.489899 5.148857 15.187911
v 13.053986 0.239899 15.701690
v 13.053986 5.148857 15.701690
v 11.574629 0.239899 16.072248
v 11.574629 5.148857 16.072248
v 10.066073 0.239899 16.296021
v 10.066073 5.148857 16.296021
v 8.542850 0.239899 16.370853
v 8.542850 5.148857 16.370853
v 7.019625 0.239899 16.296021
v 7.019625 5.148857 16.296021
v 5.511070 0.239899 16.072248
v 5.511070 5.148857 16.072248
v 4.031713 0.239899 15.701690
v 4.031713 5.148857 15.701690
v 2.595800 0.239899 15.187911
v 2.595800 5.148857 15.187911
v 1.217161 0.239899 14.535863
v 1.217161 5.148857 14.535863
v -0.090928 0.239899 13.751825
v -0.090928 5.148857 13.751825
v -1.315869 0.239899 12.843348
v -1.315869 5.148857 12.843348
v -2.445864 0.239899 11.819179
v -2.445864 5.148857 11.819179
v -3.470033 0.239899 10.689183
v -3.470033 5.148857 10.689183
v -4.378510 0.239899 9.464243
v -4.378510 5.148857 9.464243
v -5.162548 0.239899 8.156153
v -5.162548 5.148857 8.156153
v -5.814596 0.239899 6.777514
v -5.814596 5.148857 6.777514
v -6.328374 0.239899 5.341601
v -6.328374 5.148857 5.341601
v -6.698935 0.239899 3.862245
v -6.698935 5.148857 3.862245
v -6.922707 0.239899 2.353690
v -6.922707 5.148857 2.353690
v -6.997539 0.239899 0.830465
v -6.997539 5.148857 0.830465
v -6.922707 0.239899 -0.692759
v -6.922707 5.148857 -0.692759
v -6.698935 0.239899 -2.201314
v -6.698935 5.148857 -2.201314
v -6.328374 0.239899 -3.680671
v -6.328374 5.148857 -3.680671
v -5.814596 0.239899 -5.116584
v -5.814596 5.148857 -5.116584
v -5.162548 0.239899 -6.495223
v -5.162548 5.148857 -6.495223
v -4.378510 0.239899 -7.803313
v -4.378510 5.148857 -7.803313
v -3.470033 0.239899 -9.028253
v -3.470033 5.148857 -9.028253
v -2.445864 0.239899 -10.158248
v -2.445864 5.148857 -10.158248
v -1.315869 0.239899 -11.182417
v -1.315869 5.148857 -11.182417
v -0.090928 0.239899 -12.090895
v -0.090928 5.148857 -12.090895
v 1.217161 0.239899 -12.874932
v 1.217161 5.148857 -12.874932
v 2.595800 0.239899 -13.526980
v 2.595800 5.148857 -13.526980
v 4.031713 0.239899 -14.040757
v 4.031713 5.148857 -14.040757
v 5.511070 0.239899 -14.411320
v 5.511070 5.148857 -14.411320
v 7.019625 0.239899 -14.635092
v 7.019625 5.148857 -14.635092
v 8.542850 2.694378 -16.228827
v 10.214952 2.694378 -16.146681
v 11.870953 2.694378 -15.901037
v 13.494900 2.694378 -15.494259
v 15.071158 2.694378 -14.930264
v 16.584545 2.694378 -14.214486
v 18.020485 2.694378 -13.353817
v 19.365150 2.694378 -12.356545
v 20.605591 2.694378 -11.232275
v 21.729860 2.694378 -9.991836
v 22.727131 2.694378 -8.647170
v 23.587801 2.694378 -7.211230
v 24.303579 2.694378 -5.697844
v 24.867573 2.694378 -4.121585
v 25.274353 2.694378 -2.497638
v 25.519997 2.694378 -0.841638
v 25.602142 2.694378 0.830465
v 25.519997 2.694378 2.502568
v 25.274353 2.694378 4.158568
v 24.867573 2.694378 5.782516
v 24.303579 2.694378 7.358774
v 23.587801 2.694378 8.872160
v 22.727131 2.694378 10.308101
v 21.729860 2.694378 11.652766
v 20.605591 2.694378 12.893206
v 19.365150 2.694378 14.017476
v 18.020485 2.694378 15.014748
v 16.584545 2.694378 15.875417
v 15.071158 2.694378 16.591194
v 13.494900 2.694378 17.155190
v 11.870953 2.694378 17.561968
v 10.214952 2.694378 17.807611
v 8.542850 2.694378 17.889757
v 6.870747 2.694378 17.807611
v 5.214746 2.694378 17.561968
v 3.590799 2.694378 17.155190
v 2.014541 2.694378 16.591194
v 0.501155 2.694378 15.875417
v -0.934786 2.694378 15.014748
v -2.279451 2.694378 14.017476
v -3.519891 2.694378 12.893206
v -4.644161 2.694378 11.652766
v -5.641433 2.694378 10.308101
v -6.502102 2.694378 8.872160
v -7.217880 2.694378 7.358774
v -7.781876 2.694378 5.782516
v -8.188652 2.694378 4.158568
v -8.434296 2.694378 2.502568
v -8.516441 2.694378 0.830465
v -8.434296 2.694378 -0.841638
v -8.188652 2.694378 -2.497638
v -7.781876 2.694378 -4.121585
v -7.217880 2.694378 -5.697844
v -6.502102 2.694378 -7.211230
v -5.641433 2.694378 -8.647170
v -4.644161 2.694378 -9.991836
v -3.519891 2.694378 -11.232275
v -2.279451 2.694378 -12.356545
v -0.934786 2.694378 -13.353817
v 0.501155 2.694378 -14.214486
v 2.014541 2.694378 -14.930264
v 3.590799 2.694378 -15.494259
v 5.214746 2.694378 -15.901037
v 6.870747 2.694378 -16.146681
vn 0.0417 0.5258 -0.8496
vn 0.1248 0.5258 -0.8414
vn 0.2067 0.5258 -0.8251
vn 0.2866 0.5258 -0.8009
vn 0.3637 0.5258 -0.7690
vn 0.4373 0.5258 -0.7296
vn 0.5067 0.5258 -0.6832
vn 0.5712 0.5258 -0.6303
vn 0.6303 0.5258 -0.5712
vn 0.6832 0.5258 -0.5067
vn 0.7296 0.5258 -0.4373
vn 0.7690 0.5258 -0.3637
vn 0.8009 0.5258 -0.2866
vn 0.8251 0.5258 -0.2067
vn 0.8414 0.5258 -0.1248
vn 0.8496 0.5258 -0.0417
vn 0.8496 0.5258 0.0417
vn 0.8414 0.5258 0.1248
vn 0.8251 0.5258 0.2067
vn 0.8009 0.5258 0.2866
vn 0.7690 0.5258 0.3637
vn 0.7296 0.5258 0.4373
vn 0.6832 0.5258 0.5067
vn 0.6303 0.5258 0.5712
vn 0.5712 0.5258 0.6303
vn 0.5067 0.5258 0.6832
vn 0.4373 0.5258 0.7296
vn 0.3637 0.5258 0.7690
vn 0.2866 0.5258 0.8009
vn 0.2067 0.5258 0.8251
vn 0.1248 0.5258 0.8414
vn 0.0417 0.5258 0.8496
vn -0.0417 0.5258 0.8496
vn -0.1248 0.5258 0.8414
vn -0.2067 0.5258 0.8251
vn -0.2866 0.5258 0.8009
vn -0.3637 0.5258 0.7690
vn -0.4373 0.5258 0.7296
vn -0.5067 0.5258 0.6832
vn -0.5712 0.5258 0.6303
vn -0.6303 0.5258 0.5712
vn -0.6832 0.5258 0.5067
vn -0.7296 0.5258 0.4373
vn -0.7690 0.5258 0.3637
vn -0.8009 0.5258 0.2866
vn -0.8251 0.5258 0.2067
vn -0.8414 0.5258 0.1248
vn -0.8496 0.5258 0.0417
vn -0.8496 0.5258 -0.0417
vn -0.8414 0.5258 -0.1248
vn -0.8251 0.5258 -0.2067
vn -0.8009 0.5258 -0.2866
vn -0.7690 0.5258 -0.3637
vn -0.7296 0.5258 -0.4373
vn -0.6832 0.5258 -0.5067
vn -0.6303 0.5258 -0.5712
vn -0.5712 0.5258 -0.6303
vn -0.5067 0.5258 -0.6832
vn -0.4373 0.5258 -0.7296
vn -0.3637 0.5258 -0.7690
vn -0.2866 0.5258 -0.8009
vn -0.2067 0.5258 -0.8251
vn -0.0000 1.0000 -0.0000
vn -0.1248 0.5258 -0.8414
vn -0.0417 0.5258 -0.8496
vn -0.0000 -1.0000 -0.0000
vn -0.0417 -0.5258 -0.8496
vn -0.1248 -0.5258 -0.8414
vn -0.2067 -0.5258 -0.8251
vn -0.2866 -0.5258 -0.8009
vn -0.3637 -0.5258 -0.7690
vn -0.4373 -0.5258 -0.7296
vn -0.5067 -0.5258 -0.6832
vn -0.5712 -0.5258 -0.6303
vn -0.6303 -0.5258 -0.5712
vn -0.6832 -0.5258 -0.5067
vn -0.7296 -0.5258 -0.4373
vn -0.7690 -0.5258 -0.3637
vn -0.8009 -0.5258 -0.2866
vn -0.8251 -0.5258 -0.2067
vn -0.8414 -0.5258 -0.1248
vn -0.8496 -0.5258 -0.0417
vn -0.8496 -0.5258 0.0417
vn -0.8414 -0.5258 0.1248
vn -0.8251 -0.5258 0.2067
vn -0.8009 -0.5258 0.2866
vn -0.7690 -0.5258 0.3637
vn -0.7296 -0.5258 0.4373
vn -0.6832 -0.5258 0.5067
vn -0.6303 -0.5258 0.5712
vn -0.5712 -0.5258 0.6303
vn -0.5067 -0.5258 0.6832
vn -0.4373 -0.5258 0.7296
vn -0.3637 -0.5258 0.7690
vn -0.2866 -0.5258 0.8009
vn -0.2067 -0.5258 0.8251
vn -0.1248 -0.5258 0.8414
vn -0.0417 -0.5258 0.8496
vn 0.0417 -0.5258 0.8496
vn 0.1248 -0.5258 0.8414
vn 0.2067 -0.5258 0.8251
vn 0.2866 -0.5258 0.8009
vn 0.3637 -0.5258 0.7690
vn 0.4373 -0.5258 0.7296
vn 0.5067 -0.5258 0.6832
vn 0.5712 -0.5258 0.6303
vn 0.6303 -0.5258 0.5712
vn 0.6832 -0.5258 0.5067
vn 0.7296 -0.5258 0.4373
vn 0.7690 -0.5258 0.3637
vn 0.8009 -0.5258 0.2866
vn 0.8251 -0.5258 0.2067
vn 0.8414 -0.5258 0.1248
vn 0.8496 -0.5258 0.0417
vn 0.8496 -0.5258 -0.0417
vn 0.8414 -0.5258 -0.1248
vn 0.8251 -0.5258 -0.2067
vn 0.8009 -0.5258 -0.2866
vn 0.7690 -0.5258 -0.3637
vn 0.7296 -0.5258 -0.4373
vn 0.6832 -0.5258 -0.5067
vn 0.6303 -0.5258 -0.5712
vn 0.5712 -0.5258 -0.6303
vn 0.5067 -0.5258 -0.6832
vn 0.4373 -0.5258 -0.7296
vn 0.3637 -0.5258 -0.7690
vn 0.2866 -0.5258 -0.8009
vn 0.2067 -0.5258 -0.8251
vn 0.1248 -0.5258 -0.8414
vn 0.0417 -0.5258 -0.8496
vt 1.000000 0.516782
vt 1.000000 0.546025
vt 0.984375 0.546025
vt 0.984375 0.516782
vt 0.968750 0.546025
vt 0.968750 0.516782
vt 0.953125 0.546025
vt 0.953125 0.516782
vt 0.937500 0.546025
vt 0.937500 0.516782
vt 0.921875 0.546025
vt 0.921875 0.516782
vt 0.906250 0.546025
vt 0.906250 0.516782
vt 0.890625 0.546025
vt 0.890625 0.516782
vt 0.875000 0.546025
vt 0.875000 0.516782
vt 0.859375 0.546025
vt 0.859375 0.516782
vt 0.843750 0.546025
vt 0.843750 0.516782
vt 0.828125 0.546025
vt 0.828125 0.516782
vt 0.812500 0.546025
vt 0.812500 0.516782
vt 0.796875 0.546025
vt 0.796875 0.516782
vt 0.781250 0.546025
vt 0.781250 0.516782
vt 0.765625 0.546025
vt 0.765625 0.516782
vt 0.750000 0.546025
vt 0.750000 0.516782
vt 0.734375 0.546025
vt 0.734375 0.516782
vt 0.718750 0.546025
vt 0.718750 0.516782
vt 0.703125 0.546025
vt 0.703125 0.516782
vt 0.687500 0.546025
vt 0.687500 0.516782
vt 0.671875 0.546025
vt 0.671875 0.516782
vt 0.656250 0.546025
vt 0.656250 0.516782
vt 0.640625 0.546025
vt 0.640625 0.516782
vt 0.625000 0.546025
vt 0.625000 0.516782
vt 0.609375 0.546025
vt 0.609375 0.516782
vt 0.593750 0.546025
vt 0.593750 0.516782
vt 0.578125 0.546025
vt 0.578125 0.516782
vt 0.562500 0.546025
vt 0.562500 0.516782
vt 0.546875 0.546025
vt 0.546875 0.516782
vt 0.531250 0.546025
vt 0.531250 0.516782
vt 0.515625 0.546025
vt 0.515625 0.516782
vt 0.500000 0.546025
vt 0.500000 0.516782
vt 0.484375 0.546025
vt 0.484375 0.516782
vt 0.468750 0.546025
vt 0.468750 0.516782
vt 0.453125 0.546025
vt 0.453125 0.516782
vt 0.437500 0.546025
vt 0.437500 0.516782
vt 0.421875 0.546025
vt 0.421875 0.516782
vt 0.406250 0.546025
vt 0.406250 0.516782
vt 0.390625 0.546025
vt 0.390625 0.516782
vt 0.375000 0.546025
vt 0.375000 0.516782
vt 0.359375 0.546025
vt 0.359375 0.516782
vt 0.343750 0.546025
vt 0.343750 0.516782
vt 0.328125 0.546025
vt 0.328125 0.516782
vt 0.312500 0.546025
vt 0.312500 0.516782
vt 0.296875 0.546025
vt 0.296875 0.516782
vt 0.281250 0.546025
vt 0.281250 0.516782
vt 0.265625 0.546025
vt 0.265625 0.516782
vt 0.250000 0.546025
vt 0.250000 0.516782
vt 0.234375 0.546025
vt 0.234375 0.516782
vt 0.218750 0.546025
vt 0.218750 0.516782
vt 0.203125 0.546025
vt 0.203125 0.516782
vt 0.187500 0.546025
vt 0.187500 0.516782
vt 0.171875 0.546025
vt 0.171875 0.516782
vt 0.156250 0.546025
vt 0.156250 0.516782
vt 0.140625 0.546025
vt 0.140625 0.516782
vt 0.125000 0.546025
vt 0.125000 0.516782
vt 0.109375 0.546025
vt 0.109375 0.516782
vt 0.093750 0.546025
vt 0.093750 0.516782
vt 0.078125 0.546025
vt 0.078125 0.516782
vt 0.062500 0.546025
vt 0.062500 0.516782
vt 0.046875 0.546025
vt 0.046875 0.516782
vt 0.031250 0.546025
vt 0.031250 0.516782
vt 0.065010 0.486448
vt 0.060225 0.486683
vt 0.055441 0.486448
vt 0.050703 0.485745
vt 0.046057 0.484581
vt 0.041547 0.482967
vt 0.037217 0.480920
vt 0.033109 0.478457
vt 0.029261 0.475604
vt 0.025712 0.472387
vt 0.022496 0.468838
vt 0.019642 0.464991
vt 0.017180 0.460882
vt 0.015132 0.456552
vt 0.013518 0.452042
vt 0.012354 0.447396
vt 0.011652 0.442658
vt 0.011416 0.437874
vt 0.011652 0.433090
vt 0.012354 0.428352
vt 0.013518 0.423705
vt 0.015132 0.419195
vt 0.017180 0.414865
vt 0.019642 0.410757
vt 0.022496 0.406910
vt 0.025712 0.403361
vt 0.029261 0.400144
vt 0.033109 0.397291
vt 0.037217 0.394828
vt 0.041547 0.392780
vt 0.046057 0.391167
vt 0.050703 0.390003
vt 0.055441 0.389300
vt 0.060225 0.389065
vt 0.065010 0.389300
vt 0.069748 0.390003
vt 0.074394 0.391167
vt 0.078904 0.392780
vt 0.083234 0.394828
vt 0.087342 0.397291
vt 0.091190 0.400144
vt 0.094739 0.403361
vt 0.097955 0.406910
vt 0.100809 0.410757
vt 0.103271 0.414865
vt 0.105319 0.419195
vt 0.106933 0.423705
vt 0.108097 0.428352
vt 0.108799 0.433090
vt 0.109034 0.437874
vt 0.108799 0.442658
vt 0.108097 0.447396
vt 0.106933 0.452042
vt 0.105319 0.456552
vt 0.103271 0.460882
vt 0.100809 0.464991
vt 0.097955 0.468838
vt 0.094739 0.472387
vt 0.091190 0.475604
vt 0.087342 0.478457
vt 0.083234 0.480920
vt 0.078904 0.482967
vt 0.074394 0.484581
vt 0.069748 0.485745
vt 0.015625 0.546025
vt 0.015625 0.516782
vt 0.000000 0.546025
vt 0.000000 0.516782
vt 0.161911 0.486683
vt 0.166695 0.486448
vt 0.171433 0.485745
vt 0.176079 0.484581
vt 0.180589 0.482967
vt 0.184919 0.480920
vt 0.189028 0.478457
vt 0.192875 0.475604
vt 0.196424 0.472387
vt 0.199641 0.468838
vt 0.202494 0.464991
vt 0.204957 0.460882
vt 0.207004 0.456552
vt 0.208618 0.452042
vt 0.209782 0.447396
vt 0.210485 0.442658
vt 0.210720 0.437874
vt 0.210485 0.433090
vt 0.209782 0.428352
vt 0.208618 0.423705
vt 0.207004 0.419195
vt 0.204957 0.414865
vt 0.202494 0.410757
vt 0.199641 0.406910
vt 0.196424 0.403361
vt 0.192875 0.400144
vt 0.189028 0.397291
vt 0.184919 0.394828
vt 0.180589 0.392780
vt 0.176079 0.391167
vt 0.171433 0.390003
vt 0.166695 0.389300
vt 0.161911 0.389065
vt 0.157127 0.389300
vt 0.152389 0.390003
vt 0.147742 0.391167
vt 0.143233 0.392780
vt 0.138902 0.394828
vt 0.134794 0.397291
vt 0.130947 0.400144
vt 0.127398 0.403361
vt 0.124181 0.406910
vt 0.121328 0.410757
vt 0.118865 0.414865
vt 0.116817 0.419195
vt 0.115204 0.423705
vt 0.114040 0.428352
vt 0.113337 0.433090
vt 0.113102 0.437874
vt 0.113337 0.442658
vt 0.114040 0.447396
vt 0.115204 0.452042
vt 0.116817 0.456552
vt 0.118865 0.460882
vt 0.121328 0.464991
vt 0.124181 0.468838
vt 0.127398 0.472387
vt 0.130947 0.475604
vt 0.134794 0.478457
vt 0.138902 0.480920
vt 0.143233 0.482967
vt 0.147742 0.484581
vt 0.152389 0.485745
vt 0.157127 0.486448
vt 0.015625 0.495528
vt 0.000000 0.495528
vt 0.031250 0.495528
vt 0.046875 0.495528
vt 0.062500 0.495528
vt 0.078125 0.495528
vt 0.093750 0.495528
vt 0.109375 0.495528
vt 0.125000 0.495528
vt 0.140625 0.495528
vt 0.156250 0.495528
vt 0.171875 0.495528
vt 0.187500 0.495528
vt 0.203125 0.495528
vt 0.218750 0.495528
vt 0.234375 0.495528
vt 0.250000 0.495528
vt 0.265625 0.495528
vt 0.281250 0.495528
vt 0.296875 0.495528
vt 0.312500 0.495528
vt 0.328125 0.495528
vt 0.343750 0.495528
vt 0.359375 0.495528
vt 0.375000 0.495528
vt 0.390625 0.495528
vt 0.406250 0.495528
vt 0.421875 0.495528
vt 0.437500 0.495528
vt 0.453125 0.495528
vt 0.468750 0.495528
vt 0.484375 0.495528
vt 0.500000 0.495528
vt 0.515625 0.495528
vt 0.531250 0.495528
vt 0.546875 0.495528
vt 0.562500 0.495528
vt 0.578125 0.495528
vt 0.593750 0.495528
vt 0.609375 0.495528
vt 0.625000 0.495528
vt 0.640625 0.495528
vt 0.656250 0.495528
vt 0.671875 0.495528
vt 0.687500 0.495528
vt 0.703125 0.495528
vt 0.718750 0.495528
vt 0.734375 0.495528
vt 0.750000 0.495528
vt 0.765625 0.495528
vt 0.781250 0.495528
vt 0.796875 0.495528
vt 0.812500 0.495528
vt 0.828125 0.495528
vt 0.843750 0.495528
vt 0.859375 0.495528
vt 0.875000 0.495528
vt 0.890625 0.495528
vt 0.906250 0.495528
vt 0.921875 0.495528
vt 0.937500 0.495528
vt 0.953125 0.495528
vt 0.968750 0.495528
vt 0.984375 0.495528
vt 1.000000 0.495528
s 0
usemtl Material.001
f 129/1/1 2/2/1 4/3/1 130/4/1
f 130/4/2 4/3/2 6/5/2 131/6/2
f 131/6/3 6/5/3 8/7/3 132/8/3
f 132/8/4 8/7/4 10/9/4 133/10/4
f 133/10/5 10/9/5 12/11/5 134/12/5
f 134/12/6 12/11/6 14/13/6 135/14/6
f 135/14/7 14/13/7 16/15/7 136/16/7
f 136/16/8 16/15/8 18/17/8 137/18/8
f 137/18/9 18/17/9 20/19/9 138/20/9
f 138/20/10 20/19/10 22/21/10 139/22/10
f 139/22/11 22/21/11 24/23/11 140/24/11
f 140/24/12 24/23/12 26/25/12 141/26/12
f 141/26/13 26/25/13 28/27/13 142/28/13
f 142/28/14 28/27/14 30/29/14 143/30/14
f 143/30/15 30/29/15 32/31/15 144/32/15
f 144/32/16 32/31/16 34/33/16 145/34/16
f 145/34/17 34/33/17 36/35/17 146/36/17
f 146/36/18 36/35/18 38/37/18 147/38/18
f 147/38/19 38/37/19 40/39/19 148/40/19
f 148/40/20 40/39/20 42/41/20 149/42/20
f 149/42/21 42/41/21 44/43/21 150/44/21
f 150/44/22 44/43/22 46/45/22 151/46/22
f 151/46/23 46/45/23 48/47/23 152/48/23
f 152/48/24 48/47/24 50/49/24 153/50/24
f 153/50/25 50/49/25 52/51/25 154/52/25
f 154/52/26 52/51/26 54/53/26 155/54/26
f 155/54/27 54/53/27 56/55/27 156/56/27
f 156/56/28 56/55/28 58/57/28 157/58/28
f 157/58/29 58/57/29 60/59/29 158/60/29
f 158/60/30 60/59/30 62/61/30 159/62/30
f 159/62/31 62/61/31 64/63/31 160/64/31
f 160/64/32 64/63/32 66/65/32 161/66/32
f 161/66/33 66/65/33 68/67/33 162/68/33
f 162/68/34 68/67/34 70/69/34 163/70/34
f 163/70/35 70/69/35 72/71/35 164/72/35
f 164/72/36 72/71/36 74/73/36 165/74/36
f 165/74/37 74/73/37 76/75/37 166/76/37
f 166/76/38 76/75/38 78/77/38 167/78/38
f 167/78/39 78/77/39 80/79/39 168/80/39
f 168/80/40 80/79/40 82/81/40 169/82/40
f 169/82/41 82/81/41 84/83/41 170/84/41
f 170/84/42 84/83/42 86/85/42 171/86/42
f 171/86/43 86/85/43 88/87/43 172/88/43
f 172/88/44 88/87/44 90/89/44 173/90/44
f 173/90/45 90/89/45 92/91/45 174/92/45
f 174/92/46 92/91/46 94/93/46 175/94/46
f 175/94/47 94/93/47 96/95/47 176/96/47
f 176/96/48 96/95/48 98/97/48 177/98/48
f 177/98/49 98/97/49 100/99/49 178/100/49
f 178/100/50 100/99/50 102/101/50 179/102/50
f 179/102/51 102/101/51 104/103/51 180/104/51
f 180/104/52 104/103/52 106/105/52 181/106/52
f 181/106/53 106/105/53 108/107/53 182/108/53
f 182/108/54 108/107/54 110/109/54 183/110/54
f 183/110/55 110/109/55 112/111/55 184/112/55
f 184/112/56 112/111/56 114/113/56 185/114/56
f 185/114/57 114/113/57 116/115/57 186/116/57
f 186/116/58 116/115/58 118/117/58 187/118/58
f 187/118/59 118/117/59 120/119/59 188/120/59
f 188/120/60 120/119/60 122/121/60 189/122/60
f 189/122/61 122/121/61 124/123/61 190/124/61
f 190/124/62 124/123/62 126/125/62 191/126/62
f 4/127/63 2/128/63 128/129/63 126/130/63 124/131/63 122/132/63 120/133/63 118/134/63 116/135/63 114/136/63 112/137/63 110/138/63 108/139/63 106/140/63 104/141/63 102/142/63 100/143/63 98/144/63 96/145/63 94/146/63 92/147/63 90/148/63 88/149/63 86/150/63 84/151/63 82/152/63 80/153/63 78/154/63 76/155/63 74/156/63 72/157/63 70/158/63 68/159/63 66/160/63 64/161/63 62/162/63 60/163/63 58/164/63 56/165/63 54/166/63 52/167/63 50/168/63 48/169/63 46/170/63 44/171/63 42/172/63 40/173/63 38/174/63 36/175/63 34/176/63 32/177/63 30/178/63 28/179/63 26/180/63 24/181/63 22/182/63 20/183/63 18/184/63 16/185/63 14/186/63 12/187/63 10/188/63 8/189/63 6/190/63
f 191/126/64 126/125/64 128/191/64 192/192/64
f 192/192/65 128/191/65 2/193/65 129/194/65
f 1/195/66 3/196/66 5/197/66 7/198/66 9/199/66 11/200/66 13/201/66 15/202/66 17/203/66 19/204/66 21/205/66 23/206/66 25/207/66 27/208/66 29/209/66 31/210/66 33/211/66 35/212/66 37/213/66 39/214/66 41/215/66 43/216/66 45/217/66 47/218/66 49/219/66 51/220/66 53/221/66 55/222/66 57/223/66 59/224/66 61/225/66 63/226/66 65/227/66 67/228/66 69/229/66 71/230/66 73/231/66 75/232/66 77/233/66 79/234/66 81/235/66 83/236/66 85/237/66 87/238/66 89/239/66 91/240/66 93/241/66 95/242/66 97/243/66 99/244/66 101/245/66 103/246/66 105/247/66 107/248/66 109/249/66 111/250/66 113/251/66 115/252/66 117/253/66 119/254/66 121/255/66 123/256/66 125/257/66 127/258/66
f 127/259/67 192/192/67 129/194/67 1/260/67
f 125/261/68 191/126/68 192/192/68 127/259/68
f 123/262/69 190/124/69 191/126/69 125/261/69
f 121/263/70 189/122/70 190/124/70 123/262/70
f 119/264/71 188/120/71 189/122/71 121/263/71
f 117/265/72 187/118/72 188/120/72 119/264/72
f 115/266/73 186/116/73 187/118/73 117/265/73
f 113/267/74 185/114/74 186/116/74 115/266/74
f 111/268/75 184/112/75 185/114/75 113/267/75
f 109/269/76 183/110/76 184/112/76 111/268/76
f 107/270/77 182/108/77 183/110/77 109/269/77
f 105/271/78 181/106/78 182/108/78 107/270/78
f 103/272/79 180/104/79 181/106/79 105/271/79
f 101/273/80 179/102/80 180/104/80 103/272/80
f 99/274/81 178/100/81 179/102/81 101/273/81
f 97/275/82 177/98/82 178/100/82 99/274/82
f 95/276/83 176/96/83 177/98/83 97/275/83
f 93/277/84 175/94/84 176/96/84 95/276/84
f 91/278/85 174/92/85 175/94/85 93/277/85
f 89/279/86 173/90/86 174/92/86 91/278/86
f 87/280/87 172/88/87 173/90/87 89/279/87
f 85/281/88 171/86/88 172/88/88 87/280/88
f 83/282/89 170/84/89 171/86/89 85/281/89
f 81/283/90 169/82/90 170/84/90 83/282/90
f 79/284/91 168/80/91 169/82/91 81/283/91
f 77/285/92 167/78/92 168/80/92 79/284/92
f 75/286/93 166/76/93 167/78/93 77/285/93
f 73/287/94 165/74/94 166/76/94 75/286/94
f 71/288/95 164/72/95 165/74/95 73/287/95
f 69/289/96 163/70/96 164/72/96 71/288/96
f 67/290/97 162/68/97 163/70/97 69/289/97
f 65/291/98 161/66/98 162/68/98 67/290/98
f 63/292/99 160/64/99 161/66/99 65/291/99
f 61/293/100 159/62/100 160/64/100 63/292/100
f 59/294/101 158/60/101 159/62/101 61/293/101
f 57/295/102 157/58/102 158/60/102 59/294/102
f 55/296/103 156/56/103 157/58/103 57/295/103
f 53/297/104 155/54/104 156/56/104 55/296/104
f 51/298/105 154/52/105 155/54/105 53/297/105
f 49/299/106 153/50/106 154/52/106 51/298/106
f 47/300/107 152/48/107 153/50/107 49/299/107
f 45/301/108 151/46/108 152/48/108 47/300/108
f 43/302/109 150/44/109 151/46/109 45/301/109
f 41/303/110 149/42/110 150/44/110 43/302/110
f 39/304/111 148/40/111 149/42/111 41/303/111
f 37/305/112 147/38/112 148/40/112 39/304/112
f 35/306/113 146/36/113 147/38/113 37/305/113
f 33/307/114 145/34/114 146/36/114 35/306/114
f 31/308/115 144/32/115 145/34/115 33/307/115
f 29/309/116 143/30/116 144/32/116 31/308/116
f 27/310/117 142/28/117 143/30/117 29/309/117
f 25/311/118 141/26/118 142/28/118 27/310/118
f 23/312/119 140/24/119 141/26/119 25/311/119
f 21/313/120 139/22/120 140/24/120 23/312/120
f 19/314/121 138/20/121 139/22/121 21/313/121
f 17/315/122 137/18/122 138/20/122 19/314/122
f 15/316/123 136/16/123 137/18/123 17/315/123
f 13/317/124 135/14/124 136/16/124 15/316/124
f 11/318/125 134/12/125 135/14/125 13/317/125
f 9/319/126 133/10/126 134/12/126 11/318/126
f 7/320/127 132/8/127 133/10/127 9/319/127
f 5/321/128 131/6/128 132/8/128 7/320/128
f 3/322/129 130/4/129 131/6/129 5/321/129
f 1/323/130 129/1/130 130/4/130 3/322/130
